HIERARCHY
ROOT Hips
{
    OFFSET   0.000000   0.000000   0.000000
    CHANNELS 6 Xposition Yposition Zposition Zrotation Xrotation Yrotation
    JOINT Chest
    {
        OFFSET   0.000000   8.007230   0.000000
        CHANNELS 3 Zrotation Xrotation Yrotation
        JOINT Chest2
        {
            OFFSET   0.000000  22.077100   0.000000
            CHANNELS 3 Zrotation Xrotation Yrotation
            JOINT Neck
            {
                OFFSET   0.000000  23.254700   0.000000
                CHANNELS 3 Zrotation Xrotation Yrotation
                JOINT Head
                {
                    OFFSET   0.000010  14.370000   1.956610
                    CHANNELS 3 Zrotation Xrotation Yrotation
                    End Site
                    {
                        OFFSET   0.000000  19.566000   0.000000
                    }
                }
            }
            JOINT LeftCollar
            {
                OFFSET   3.911900  19.017000  -0.467063
                CHANNELS 3 Zrotation Xrotation Yrotation
                JOINT LeftShoulder
                {
                    OFFSET  10.383700   0.000000   0.000000
                    CHANNELS 3 Zrotation Xrotation Yrotation
                    JOINT LeftElbow
                    {
                        OFFSET  26.662100   0.001671   0.000522
                        CHANNELS 3 Zrotation Xrotation Yrotation
                        JOINT LeftWrist
                        {
                            OFFSET  28.869000   0.000037  -0.000114
                            CHANNELS 3 Zrotation Xrotation Yrotation
                            JOINT LeftFinger0
                            {
                                OFFSET   2.044650  -2.323450   3.252850
                                CHANNELS 3 Zrotation Xrotation Yrotation
                                JOINT LeftFinger01
                                {
                                    OFFSET   3.088140   0.000000   0.000000
                                    CHANNELS 3 Zrotation Xrotation Yrotation
                                    JOINT LeftFinger02
                                    {
                                        OFFSET   2.639460   0.000000   0.000000
                                        CHANNELS 3 Zrotation Xrotation Yrotation
                                        End Site
                                        {
                                            OFFSET   2.582190   0.000000   0.000000
                                        }
                                    }
                                }
                            }
                            JOINT LeftFinger1
                            {
                                OFFSET   8.364480   0.000000   3.252850
                                CHANNELS 3 Zrotation Xrotation Yrotation
                                JOINT LeftFinger11
                                {
                                    OFFSET   4.646930   0.000000   0.000000
                                    CHANNELS 3 Zrotation Xrotation Yrotation
                                    JOINT LeftFinger12
                                    {
                                        OFFSET   2.323470   0.000000   0.000000
                                        CHANNELS 3 Zrotation Xrotation Yrotation
                                        End Site
                                        {
                                            OFFSET   2.273050   0.000000   0.000000
                                        }
                                    }
                                }
                            }
                            JOINT LeftFinger2
                            {
                                OFFSET   8.364490   0.000016   1.078090
                                CHANNELS 3 Zrotation Xrotation Yrotation
                                JOINT LeftFinger21
                                {
                                    OFFSET   5.111620   0.000000   0.000000
                                    CHANNELS 3 Zrotation Xrotation Yrotation
                                    JOINT LeftFinger22
                                    {
                                        OFFSET   2.788150   0.000013   0.000000
                                        CHANNELS 3 Zrotation Xrotation Yrotation
                                        End Site
                                        {
                                            OFFSET   2.727660   0.000000   0.000000
                                        }
                                    }
                                }
                            }
                            JOINT LeftFinger3
                            {
                                OFFSET   7.899780   0.000016  -1.078090
                                CHANNELS 3 Zrotation Xrotation Yrotation
                                JOINT LeftFinger31
                                {
                                    OFFSET   4.646930   0.000000   0.000000
                                    CHANNELS 3 Zrotation Xrotation Yrotation
                                    JOINT LeftFinger32
                                    {
                                        OFFSET   2.323470   0.000000   0.000000
                                        CHANNELS 3 Zrotation Xrotation Yrotation
                                        End Site
                                        {
                                            OFFSET   2.273050   0.000000   0.000000
                                        }
                                    }
                                }
                            }
                            JOINT LeftFinger4
                            {
                                OFFSET   7.435080   0.000000  -3.252850
                                CHANNELS 3 Zrotation Xrotation Yrotation
                                JOINT LeftFinger41
                                {
                                    OFFSET   3.717550   0.000000   0.000000
                                    CHANNELS 3 Zrotation Xrotation Yrotation
                                    JOINT LeftFinger42
                                    {
                                        OFFSET   1.858760   0.000000   0.000000
                                        CHANNELS 3 Zrotation Xrotation Yrotation
                                        End Site
                                        {
                                            OFFSET   1.818440   0.000000   0.000000
                                        }
                                    }
                                }
                            }
                        }
                    }
                }
            }
            JOINT RightCollar
            {
                OFFSET  -3.911900  19.017000  -0.467064
                CHANNELS 3 Zrotation Xrotation Yrotation
                JOINT RightShoulder
                {
                    OFFSET -10.383700   0.000000   0.000000
                    CHANNELS 3 Zrotation Xrotation Yrotation
                    JOINT RightElbow
                    {
                        OFFSET -26.662100   0.001633   0.000260
                        CHANNELS 3 Zrotation Xrotation Yrotation
                        JOINT RightWrist
                        {
                            OFFSET -28.869000  -0.000045  -0.000080
                            CHANNELS 3 Zrotation Xrotation Yrotation
                            JOINT RightFinger0
                            {
                                OFFSET  -2.044660  -2.323490   3.252850
                                CHANNELS 3 Zrotation Xrotation Yrotation
                                JOINT RightFinger01
                                {
                                    OFFSET  -3.088140   0.000000   0.000000
                                    CHANNELS 3 Zrotation Xrotation Yrotation
                                    JOINT RightFinger02
                                    {
                                        OFFSET  -2.639450   0.000000   0.000000
                                        CHANNELS 3 Zrotation Xrotation Yrotation
                                        End Site
                                        {
                                            OFFSET  -2.582190   0.000000   0.000000
                                        }
                                    }
                                }
                            }
                            JOINT RightFinger1
                            {
                                OFFSET  -8.364480   0.000000   3.252850
                                CHANNELS 3 Zrotation Xrotation Yrotation
                                JOINT RightFinger11
                                {
                                    OFFSET  -4.646920   0.000000   0.000000
                                    CHANNELS 3 Zrotation Xrotation Yrotation
                                    JOINT RightFinger12
                                    {
                                        OFFSET  -2.323470   0.000000   0.000000
                                        CHANNELS 3 Zrotation Xrotation Yrotation
                                        End Site
                                        {
                                            OFFSET  -2.273050   0.000000   0.000000
                                        }
                                    }
                                }
                            }
                            JOINT RightFinger2
                            {
                                OFFSET  -8.364480   0.000000   1.078090
                                CHANNELS 3 Zrotation Xrotation Yrotation
                                JOINT RightFinger21
                                {
                                    OFFSET  -5.111610   0.000000   0.000000
                                    CHANNELS 3 Zrotation Xrotation Yrotation
                                    JOINT RightFinger22
                                    {
                                        OFFSET  -2.788160   0.000000   0.000000
                                        CHANNELS 3 Zrotation Xrotation Yrotation
                                        End Site
                                        {
                                            OFFSET  -2.727660   0.000000   0.000000
                                        }
                                    }
                                }
                            }
                            JOINT RightFinger3
                            {
                                OFFSET  -7.899780   0.000000  -1.078090
                                CHANNELS 3 Zrotation Xrotation Yrotation
                                JOINT RightFinger31
                                {
                                    OFFSET  -4.646930   0.000000   0.000000
                                    CHANNELS 3 Zrotation Xrotation Yrotation
                                    JOINT RightFinger32
                                    {
                                        OFFSET  -2.323470   0.000000   0.000000
                                        CHANNELS 3 Zrotation Xrotation Yrotation
                                        End Site
                                        {
                                            OFFSET  -2.273050   0.000000   0.000000
                                        }
                                    }
                                }
                            }
                            JOINT RightFinger4
                            {
                                OFFSET  -7.435090   0.000000  -3.252850
                                CHANNELS 3 Zrotation Xrotation Yrotation
                                JOINT RightFinger41
                                {
                                    OFFSET  -3.717550   0.000000   0.000000
                                    CHANNELS 3 Zrotation Xrotation Yrotation
                                    JOINT RightFinger42
                                    {
                                        OFFSET  -1.858760   0.000000   0.000000
                                        CHANNELS 3 Zrotation Xrotation Yrotation
                                        End Site
                                        {
                                            OFFSET  -1.818440   0.000000   0.000000
                                        }
                                    }
                                }
                            }
                        }
                    }
                }
            }
        }
    }
    JOINT LeftHip
    {
        OFFSET   9.782990   0.000000   0.000000
        CHANNELS 3 Zrotation Xrotation Yrotation
        JOINT LeftKnee
        {
            OFFSET  -0.000063 -41.789100   0.001657
            CHANNELS 3 Zrotation Xrotation Yrotation
            JOINT LeftAnkle
            {
                OFFSET   0.000078 -41.133200  -0.000113
                CHANNELS 3 Zrotation Xrotation Yrotation
                JOINT LeftToe
                {
                    OFFSET   0.000000  -6.358970  14.674500
                    CHANNELS 3 Zrotation Xrotation Yrotation
                    End Site
                    {
                        OFFSET   0.000000   0.000000   3.913200
                    }
                }
            }
        }
    }
    JOINT RightHip
    {
        OFFSET  -9.782990   0.000000   0.000000
        CHANNELS 3 Zrotation Xrotation Yrotation
        JOINT RightKnee
        {
            OFFSET   0.000053 -41.789200   0.000277
            CHANNELS 3 Zrotation Xrotation Yrotation
            JOINT RightAnkle
            {
                OFFSET   0.000030 -41.133200  -0.000150
                CHANNELS 3 Zrotation Xrotation Yrotation
                JOINT RightToe
                {
                    OFFSET   0.000000  -6.358960  14.674500
                    CHANNELS 3 Zrotation Xrotation Yrotation
                    End Site
                    {
                        OFFSET   0.000000   0.000000   3.913200
                    }
                }
            }
        }
    }
}
MOTION
Frames: 6
Frame Time:   0.016667
 -0.360654  89.614700  -1.374800  -2.451820  -5.669760  -3.037370   0.363531   4.265060   0.644426   0.681626   8.533870   1.266910   0.196302  -0.598735  -0.002254   0.318017  -1.214100   0.774094  -5.767790  -2.139490   1.181600 -73.889200  16.256600  -1.008470  -1.554820  -5.939570 -15.420800  11.551700  -3.034970   2.772480  38.407700  28.679800 -54.623500 -30.602400   0.000968   0.000636 -10.301200   0.001237  -0.004173 -24.041300   4.373490  -9.691130 -19.973900  -0.003052  -0.002340 -13.981700  -0.000475  -0.002125 -24.828400   0.684085  -1.478240 -24.837200  -0.000064   0.004226 -16.541600   0.005797   0.004884 -22.905100   0.628524  -1.500370 -22.913300   0.008531   0.003426 -15.260300   0.004720   0.003908 -23.964700   0.661727  -1.488380 -35.959900   0.000000   0.000000 -23.949300   0.005411   0.000000  10.302500   0.836918   8.411300  70.852800   7.580530  -4.549180   2.287210 -11.201900   8.836400 -15.033000  -2.817170   5.943060 -37.210000  23.818100  54.682900  28.364800   0.001530  -0.000750   9.182410   0.000405   0.006361  26.675700   5.555820  10.907200  22.259800   0.000840   0.003766  15.581900   0.005136   0.002925  28.201400   5.289740   9.758420  38.218300  -0.003022  -0.007442  25.453400  -0.009271   0.000670  28.493700   4.065180   7.441630  40.435100  -0.008831  -0.004371  26.929800  -0.006674   0.000264  39.456000  -0.911185  -1.107790  59.197100  -0.001437   0.000391  39.425300  -0.005348   0.005280   1.551000   7.170690   2.956520   0.934921  -0.018732   5.917210  -0.430263  -2.688250   3.558120  -0.000000   0.000000   0.000000   4.512340   4.805020   1.044590  -2.493640   3.726130  -6.219000  -0.737907  -4.148500  -1.146300   0.000000   0.000000   0.000000
 -0.360852  89.614700  -1.374800  -2.451540  -5.685060  -3.027520   0.363297   4.265220   0.643491   0.681175   8.534180   1.265050   0.195074  -0.593278  -0.002249   0.316833  -1.203020   0.766633  -5.767500  -2.139480   1.188380 -73.889800  16.291200  -1.030080  -1.543020  -5.952610 -15.424500  11.551600  -3.058880   2.780550  38.399300  28.692500 -54.636600 -30.625000   0.000971   0.000635 -10.312500   0.001238  -0.004182 -24.064900   4.373540  -9.687340 -19.992500  -0.003037  -0.002327 -13.994800  -0.000471  -0.002117 -24.836600   0.675768  -1.459550 -24.845100  -0.000066   0.004239 -16.546900   0.005815   0.004896 -22.917900   0.628467  -1.481360 -22.926200   0.008559   0.003433 -15.268500   0.004735   0.003919 -23.978900   0.653825  -1.469500 -35.981200   0.000000   0.000000 -23.963300   0.005429  -0.000000  10.301400   0.836921   8.411240  70.853600   7.588740  -4.549500   2.282580 -11.194100   8.826550 -15.039100  -2.831730   5.937920 -37.207100  23.828800  54.669800  28.379200   0.001528  -0.000771   9.189600   0.000406   0.006347  26.665000   5.559650  10.921100  22.251200   0.000835   0.003782  15.575800   0.005131   0.002934  28.201500   5.289750   9.758030  38.213700  -0.002995  -0.007461  25.450300  -0.009257   0.000650  28.493800   4.064380   7.440030  40.437400  -0.008805  -0.004381  26.931300  -0.006665   0.000248  39.450300  -0.911572  -1.108210  59.188500  -0.001424   0.000365  39.419600  -0.005366   0.005252   1.551510   7.179740   2.949460   0.935599  -0.008619   5.914650  -0.431165  -2.696320   3.557240  -0.000000   0.000000   0.000000   4.511420   4.824150   1.044650  -2.493730   3.725910  -6.217280  -0.738896  -4.147960  -1.159370  -0.000000   0.000000   0.000000
 -0.361051  89.614700  -1.374800  -2.451020  -5.710280  -3.010520   0.363161   4.265380   0.641248   0.681117   8.534500   1.260550   0.192408  -0.583851  -0.002240   0.313845  -1.183900   0.754627  -5.767070  -2.139450   1.198350 -73.890300  16.342100  -1.063130  -1.526160  -5.965540 -15.431700  11.544900  -3.082780   2.793270  38.394000  28.707100 -54.651200 -30.647600   0.000978   0.000632 -10.323800   0.001242  -0.004212 -24.089000   4.373640  -9.679790 -20.012300  -0.003002  -0.002298 -14.008600  -0.000461  -0.002093 -24.850100   0.667451  -1.440860 -24.858500  -0.000069   0.004269 -16.555800   0.005861   0.004930 -22.934700   0.628410  -1.462350 -22.942900   0.008628   0.003454 -15.280000   0.004772   0.003947 -23.996700   0.645922  -1.450630 -36.007300   0.000000   0.000000 -23.980900   0.005474   0.000000  10.299000   0.836943   8.411130  70.854600   7.600400  -4.549960   2.272920 -11.183000   8.816600 -15.051900  -2.852640   5.932810 -37.207600  23.847000  54.661400  28.401600   0.001527  -0.000792   9.200780   0.000407   0.006315  26.650500   5.573800  10.953200  22.242500   0.000820   0.003819  15.569700   0.005120   0.002957  28.201700   5.289790   9.755320  38.209100  -0.002933  -0.007513  25.447200  -0.009226   0.000602  28.494600   4.061030   7.433430  40.453500  -0.008740  -0.004409  26.942000  -0.006640   0.000208  39.444400  -0.914277  -1.111140  59.180000  -0.001394   0.000290  39.413900  -0.005407   0.005190   1.551940   7.198610   2.942460   0.936279   0.001494   5.908140  -0.432191  -2.704410   3.553750   0.000000   0.000000   0.000000   4.510320   4.852730   1.044730  -2.493950   3.725710  -6.213510  -0.740606  -4.147400  -1.182400  -0.000000   0.000000   0.000000
 -0.361001  89.614700  -1.374670  -2.450380  -5.729700  -2.994710   0.363864   4.265360   0.638002   0.682831   8.534460   1.253970   0.188970  -0.576275  -0.002232   0.309484  -1.168600   0.745575  -5.766900  -2.135880   1.202550 -73.888300  16.367800  -1.084060  -1.519420  -5.959440 -15.440500  11.523700  -3.075450   2.801580  38.401600  28.715100 -54.642100 -30.645200   0.000991   0.000626 -10.322600   0.001261  -0.004272 -24.090500   4.370540  -9.670070 -20.013500  -0.002952  -0.002258 -14.009500  -0.000446  -0.002055 -24.863500   0.672836  -1.451750 -24.872100  -0.000071   0.004312 -16.564900   0.005933   0.004986 -22.939300   0.628469  -1.473520 -22.947400   0.008733   0.003490 -15.284400   0.004830   0.003987 -24.000800   0.650921  -1.461710 -36.012800   0.000000   0.000000 -23.985100   0.005542   0.000000  10.295500   0.843075   8.411000  70.854500   7.606000  -4.550150   2.260970 -11.180500   8.817740 -15.072700  -2.861120   5.944150 -37.210400  23.869300  54.682600  28.414600   0.001528  -0.000779   9.207300   0.000410   0.006272  26.667700   5.611270  11.012400  22.263100   0.000794   0.003868  15.584200   0.005103   0.002998  28.206900   5.285720   9.744760  38.281100  -0.002842  -0.007594  25.495200  -0.009183   0.000528  28.497500   4.053500   7.418610  40.540700  -0.008643  -0.004458  27.000100  -0.006600   0.000147  39.488600  -0.928101  -1.125950  59.246700  -0.001349   0.000155  39.458200  -0.005457   0.005110   1.551270   7.226290   2.946670   0.935109  -0.019519   5.897300  -0.430710  -2.689490   3.545720  -0.000000   0.000000   0.000000   4.512650   4.868810   1.044780  -2.496090   3.729480  -6.208750  -0.742137  -4.148350  -1.203610  -0.000000   0.000000   0.000000
 -0.360651  89.614600  -1.374480  -2.449910  -5.749140  -2.980140   0.365906   4.265150   0.633969   0.687191   8.534070   1.245720   0.184791  -0.566980  -0.002217   0.303560  -1.149790   0.737731  -5.766820  -2.127700   1.207130 -73.889000  16.386500  -1.099980  -1.515970  -5.947430 -15.449700  11.500700  -3.064170   2.809790  38.411000  28.725300 -54.626900 -30.638600   0.001006   0.000622 -10.319300   0.001285  -0.004342 -24.092100   4.365530  -9.660900 -20.013700  -0.002887  -0.002207 -14.009600  -0.000429  -0.002005 -24.871600   0.678222  -1.462650 -24.880300  -0.000072   0.004366 -16.570300   0.006022   0.005055 -22.939900   0.628527  -1.484680 -22.948100   0.008863   0.003536 -15.286800   0.004902   0.004039 -24.001100   0.655920  -1.472780 -36.013600   0.000000   0.000000 -23.985700   0.005629  -0.000000  10.290100   0.855554   8.410890  70.854200   7.608140  -4.550220   2.244710 -11.175900   8.823540 -15.086100  -2.867880   5.961070 -37.206200  23.887700  54.701300  28.428500   0.001532  -0.000766   9.214250   0.000412   0.006219  26.700300   5.638410  11.053400  22.292400   0.000758   0.003932  15.604700   0.005081   0.003050  28.215200   5.278800   9.730110  38.402500  -0.002739  -0.007694  25.576100  -0.009133   0.000438  28.501400   4.044850   7.401620  40.660900  -0.008524  -0.004518  27.080100  -0.006552   0.000072  39.558600  -0.946999  -1.146150  59.352200  -0.001296   0.000000  39.528500  -0.005527   0.005003   1.550870   7.249400   2.952920   0.933931  -0.040533   5.885570  -0.429246  -2.674570   3.537240   0.000000   0.000000   0.000000   4.519740   4.880660   1.044840  -2.502720   3.740320  -6.202720  -0.743656  -4.151380  -1.225990  -0.000000   0.000000  -0.000000
 -0.358598  89.614600  -1.374380  -2.451140  -5.767890  -2.970660   0.369995   4.262340   0.629720   0.695749   8.528470   1.236890   0.180102  -0.552808  -0.002184   0.295695  -1.120950   0.732391  -5.766660  -2.115480   1.215790 -73.897600  16.402600  -1.110050  -1.512110  -5.932640 -15.456600  11.485400  -3.055680   2.819030  38.423600  28.733900 -54.620500 -30.624100   0.001023   0.000657 -10.312100   0.001297  -0.004404 -24.083500   4.361940  -9.656950 -20.006200  -0.002806  -0.002143 -14.004300  -0.000414  -0.001947 -24.867100   0.677885  -1.461980 -24.875900  -0.000073   0.004428 -16.567300   0.006122   0.005133 -22.937100   0.628218  -1.484000 -22.945300   0.009006   0.003585 -15.289400   0.004986   0.004102 -23.998300   0.655597  -1.472100 -36.009700   0.000000   0.000000 -23.982800   0.005731  -0.000000  10.282600   0.871651   8.410870  70.855700   7.599070  -4.548780   2.221600 -11.147300   8.836880 -15.083600  -2.879420   5.969940 -37.199600  23.893800  54.695400  28.450400   0.001538  -0.000778   9.225210   0.000412   0.006161  26.718100   5.633040  11.037100  22.306100   0.000713   0.004011  15.614200   0.005054   0.003110  28.222300   5.272770   9.716370  38.508300  -0.002639  -0.007804  25.646500  -0.009077   0.000341  28.504800   4.037850   7.387900  40.750500  -0.008393  -0.004582  27.139800  -0.006500  -0.000009  39.609800  -0.961686  -1.161840  59.429400  -0.001244  -0.000132  39.580000  -0.005630   0.004856   1.551590   7.252900   2.957220   0.934040  -0.022802   5.876560  -0.429340  -2.677590   3.531680   0.000000   0.000000   0.000000   4.532470   4.887460   1.044900  -2.515710   3.759090  -6.195650  -0.743713  -4.156870  -1.248250  -0.000000   0.000000  -0.000000
